<svg xmlns="http://www.w3.org/2000/svg" viewBox="0 0 500 500"><g id="freepik--Shadow--inject-2"><g style="opacity:0.1"><path d="M334.81,430.22c0,6.56-37.33,11.88-83.38,11.88s-83.37-5.32-83.37-11.88,37.33-11.89,83.37-11.89S334.81,423.65,334.81,430.22Z"></path></g></g><g id="freepik--Character--inject-2"><path d="M386,380.66c-1.17-3.45-62.94-84.06-67.14-85.59-.48-.21-27.76,19.46-27.76,19.46-1.12,1.51-53.26-9.18-53.26-9.18l-.14,62.82,94.85-2.58s12.86,7.45,24.62,13.52h0c7.23,3.76,13.64,6.93,15.46,7.39C377.45,387.69,387.22,384.1,386,380.66Z" style="fill: rgb(247, 169, 160);"></path><path d="M252.7,290.94s-82.08-16.18-117.51-13.24C93,281.2,63.8,319,118.09,351.47c48,28.66,191.09,14.76,191.09,14.76l-35.26-53.92s-42.76-15.45-95-13.37l73.8,9.61Z" style="fill:#37474f"></path><path d="M249.17,290s78.25-15.74,121.39-14c42.26,1.76,63.66,38.52,24.89,70C349.9,383,187.88,372.07,187.88,372.07l25.39-51.69s58.27-22.54,110.45-26.06l-72.35,17.43Z" style="fill:#37474f"></path><path d="M105.81,386.82c1.15-3.46,62.67-84.27,66.86-85.82.48-.2,27.82,19.37,27.82,19.37L253,307.47l0,65.74c-28.35,2.49-89.42-1.64-89.42-1.64s-17.2,7.5-28.93,13.6h0c-7.23,3.79-13.62,7-15.44,7.44C114.41,393.81,104.63,390.26,105.81,386.82Z" style="fill: rgb(247, 169, 160);"></path><path d="M162.57,373a157.76,157.76,0,0,1,7.84-14.76c2.84-4.8,5.91-9.46,9.11-14s6.67-9,10.29-13.2a125.74,125.74,0,0,1,11.68-12c-1.73,2.19-3.62,4.22-5.3,6.44s-3.46,4.33-5.17,6.52-3.37,4.39-5,6.63l-2.46,3.35-2.41,3.39c-3.21,4.51-6.33,9.09-9.43,13.7S165.58,368.27,162.57,373Z" style="fill:#5E5AE2"></path><path d="M200.76,320c6.94-2.84,62.64-19,127.86-26.8a7.53,7.53,0,0,1,.88-.38c.68-.3,1.36-.6,2.06-.85,1.3-.46,2.62-.85,3.93-1.25,2.74-.84,5.5-1.51,8.21-2.47.16-.05.26.27.1.34-2.72,1.08-5.35,2.41-8.07,3.49l-2.35.91c5.45-.18,10.9-.19,16.37-.1.17,0,.21.33,0,.35-59.25,4.46-140.45,25.1-148.49,27.54C200.4,321,199.72,320.41,200.76,320Z" style="fill:#263238"></path><path d="M128.06,356.32c2.19-3.81,4.76-7.38,7.26-11s5.14-7.12,7.76-10.63Q151,324.2,159.32,314c2.8-3.38,5.62-6.75,8.59-10,.75-.82,1.51-1.62,2.33-2.41a13.88,13.88,0,0,1,1.36-1.17,2.73,2.73,0,0,1,.59-.32,1.53,1.53,0,0,1,.33-.07h.26l.12,0a2.45,2.45,0,0,1,.35.09,8,8,0,0,1,.87.41c2,1.13,3.79,2.37,5.62,3.62,7.19,5.06,14.18,10.35,21.07,15.78l-.44-.09,5.1-.91q2.55-.46,5.1-.87c-1.65.5-3.31,1-5,1.43l-5,1.38-.22.06-.21-.16c-7.17-5-14.28-10.16-21.52-15.05-1.8-1.2-3.63-2.46-5.46-3.46a4.44,4.44,0,0,0-.61-.28l0,0h.17l.14,0s-.06,0-.13.09a10.45,10.45,0,0,0-1.12,1c-.76.74-1.5,1.53-2.23,2.33-2.94,3.2-5.77,6.54-8.58,9.89q-8.43,10.06-16.64,20.32L136,345.82C133.26,349.27,130.55,352.71,128.06,356.32Z" style="fill:#263238"></path><path d="M370.92,358.53c-2.8,1.16-5.68,2.14-8.57,3.07s-5.81,1.74-8.75,2.5-5.9,1.42-8.89,2-6,1-9,1.31c1.47-.37,3-.65,4.43-1s2.95-.67,4.42-1c2.94-.72,5.88-1.42,8.8-2.18l8.79-2.27Z" style="fill:#263238"></path><path d="M236.57,302.5c-6.72-1-13.47-1.93-20.22-2.77a393.49,393.49,0,0,0-40.59-3c-1.27,0-2.54,0-3.81,0-.27-.1-.55-.16-.83-.24-.64-.19-1.28-.38-1.94-.53-1.21-.29-2.44-.52-3.66-.76-2.55-.49-5.11-.87-7.65-1.45a.12.12,0,0,0-.06.24c2.54.68,5,1.54,7.58,2.21l2.2.56c-5,.08-10,.29-14.93.57-.16,0-.17.26,0,.25,6.76-.15,13.57.05,20.32.42s13.42.76,20.11,1.41c13.53,1.3,27,3.05,40.49,5,7.55,1.09,15.11,2.34,22.71,2.95.74.06,1-1.16.23-1.33" style="fill:#263238"></path><path d="M253.72,184.64c0,14.21,25.67,69,38.76,80,4.48,3.77,28.68,20.88,46.79,25.84,8.18,2.23,28.17-34.27,21.11-36.88-9.88-3.65-43.77-18.83-44.87-19.89-7.76-7.53-23.66-31-43.93-53.06C259.94,168,253.72,173.68,253.72,184.64Z" style="fill: rgb(247, 169, 160);"></path><path d="M336.91,288.93c10.12,11,24.89,20.07,31,21.24s28.6-3.73,33.45-5.88,11.75-22,13.14-26.52c1.11-3.63-.93-7.79-7.38-3.34-8.27,5.69-10.77,15.57-13.51,16.54s-12.74-2.17-14.1-6.26c-.79-2.4,1.38-7.77,5.72-9.23s8.85,1.11,15,.72,12-6.47,10.78-8.47-3.95-.87-12.35-3.59c-5.41-1.74-11.78-7.57-22.19-9.54-5.23-1-16-1-16-1Z" style="fill: rgb(247, 169, 160);"></path><path d="M364.94,297.83c5.69,4.58,18.78,11.88,29.43,12.31,7.19.28,26.63-2.72,26.37-8.17-.36-7.79-25.43-6.46-28.39-7.18-9.11-2.22-17.56-11.15-17.56-11.15Z" style="fill: rgb(247, 169, 160);"></path><path d="M383.05,290.46c1,.46,1.89,1,2.85,1.41s1.9.9,2.88,1.28a22.61,22.61,0,0,0,3,1,18.17,18.17,0,0,0,3.07.44l6.32.46a61.75,61.75,0,0,1,6.34.7l-6.37,0q-3.18,0-6.38-.22a16.46,16.46,0,0,1-3.22-.51,18.76,18.76,0,0,1-3-1.16c-1-.48-1.9-1-2.81-1.57S383.88,291.12,383.05,290.46Z" style="fill:#263238"></path><path d="M362.92,298.25c4.75,5.36,16.22,14.56,26.44,16.71,6.92,1.45,26.2,1.72,26.85-3.59.91-7.6-23.55-10.4-26.29-11.58-8.45-3.64-15.16-13.65-15.16-13.65Z" style="fill: rgb(247, 169, 160);"></path><path d="M381.33,293.56c1.14,1,2.33,2,3.54,2.93a20.94,20.94,0,0,0,3.82,2.38,10.59,10.59,0,0,0,2.11.64L393,300c1.49.35,3,.71,4.47,1.09,3,.74,5.95,1.5,8.9,2.37A29.24,29.24,0,0,1,410.8,305a10,10,0,0,1,3.67,2.8,10.59,10.59,0,0,0-3.84-2.4,36.12,36.12,0,0,0-4.39-1.24l-9-2.1L392.81,301l-2.24-.55a10.45,10.45,0,0,1-2.26-.78A24.24,24.24,0,0,1,381.33,293.56Z" style="fill:#263238"></path><path d="M354.32,303.5c8.36,5.46,21.85,12.23,26.22,13.39s21.45,3.37,24.82-.55c4.24-4.93-8.92-8.47-14.35-10.08-5.63-1.66-10.87-7.56-10.87-7.56Z" style="fill: rgb(247, 169, 160);"></path><path d="M405.85,315.64a3.77,3.77,0,0,0,.31-1.83,2.89,2.89,0,0,0-.77-1.64,8.92,8.92,0,0,0-3.13-2,40.85,40.85,0,0,0-7.18-2.3,28.3,28.3,0,0,1-7.3-2.36,25.08,25.08,0,0,1-6-4.82c-3.47-3.77-6.24-8.05-9.76-11.61a32,32,0,0,0-6-4.49,35.3,35.3,0,0,0-6.85-3.2,31.86,31.86,0,0,1,7.05,2.85,32.92,32.92,0,0,1,3.26,2,23.69,23.69,0,0,1,3,2.36,48,48,0,0,1,5.12,5.66c1.6,2,3.17,4,4.89,5.76a23.68,23.68,0,0,0,5.71,4.73,31.47,31.47,0,0,0,7.06,2.43,40.75,40.75,0,0,1,7.18,2.59,9.18,9.18,0,0,1,3.13,2.22,3,3,0,0,1,.72,1.78A3.81,3.81,0,0,1,405.85,315.64Z" style="fill:#263238"></path><path d="M253.73,184.64c0,14.21,25.66,69,38.75,80A176.32,176.32,0,0,0,310.58,277L257.3,174.31C254.94,176,253.73,179.79,253.73,184.64Z" style="fill:#263238"></path><path d="M310.58,277c4.37,2.56,8.87,4.92,13.46,7,2.3,1.07,4.61,2.1,6.95,3.06s4.72,1.83,7.1,2.66l.08,0,.08.07A103.31,103.31,0,0,0,353,302a129.14,129.14,0,0,0,16.53,9.54c2.9,1.39,5.63,3.12,8.56,4.19a42.37,42.37,0,0,0,9.29,1.84,62.89,62.89,0,0,0,9.5.42,28.48,28.48,0,0,0,4.7-.58,8.5,8.5,0,0,0,4.12-1.95l.09-.09h.11a28.38,28.38,0,0,0,4.22-.35,12.81,12.81,0,0,0,4-1.23,4.35,4.35,0,0,0,1.55-1.33,2.84,2.84,0,0,0,.44-1.95,5.36,5.36,0,0,0-2.35-3.35l-.08-.07.1,0,1.2-.27.59-.16a1.26,1.26,0,0,0,.55-.25,1.2,1.2,0,0,1-.54.27l-.59.19-1.19.31v-.08a5.4,5.4,0,0,1,2.53,3.4,3.11,3.11,0,0,1-.42,2.14,4.78,4.78,0,0,1-1.62,1.48,13.39,13.39,0,0,1-4.11,1.38,25.59,25.59,0,0,1-4.3.45l.21-.09a9,9,0,0,1-4.39,2.19,28.9,28.9,0,0,1-4.8.68,57.48,57.48,0,0,1-9.64-.29,42.76,42.76,0,0,1-9.5-1.83c-3.09-1.11-5.8-2.83-8.68-4.18a118.4,118.4,0,0,1-16.63-9.66,96.15,96.15,0,0,1-14.72-12.39l.15.1c-2.39-.87-4.77-1.78-7.09-2.8s-4.65-2.06-6.92-3.2A141.27,141.27,0,0,1,310.58,277Z" style="fill:#263238"></path><path d="M398.91,283.4c-.6,1.28-1.27,2.53-2,3.77-.35.62-.72,1.22-1.11,1.82a10.17,10.17,0,0,1-1.33,1.72,2.16,2.16,0,0,1-1.07.55,7,7,0,0,1-1.1.14,14.15,14.15,0,0,1-2.17-.11,18.36,18.36,0,0,1-4.19-1,11.91,11.91,0,0,1-2-1l-1.79-1.14a13.34,13.34,0,0,1-1.74-1.3,4.3,4.3,0,0,1-1.27-1.85,4.56,4.56,0,0,1-.05-2.23,10.29,10.29,0,0,1,.65-2.06,8.82,8.82,0,0,1,2.48-3.44,9.36,9.36,0,0,0-2.14,3.58,6.22,6.22,0,0,0-.39,4,6.48,6.48,0,0,0,2.83,2.77l1.8,1.1a11.6,11.6,0,0,0,1.84.9,17.32,17.32,0,0,0,4,1.06,12.84,12.84,0,0,0,2.05.14,3,3,0,0,0,1.82-.46,20,20,0,0,0,2.51-3.31C397.43,285.81,398.16,284.6,398.91,283.4Z" style="fill:#263238"></path><path d="M412.47,296.49l-2.53-.23c-.83-.09-1.67-.18-2.51-.29l-.34-.05.15-.3c.62-1.26,1.28-2.5,2-3.73a16.84,16.84,0,0,1-.69,2c-.25.66-.54,1.3-.84,1.94l-.19-.35c.84.09,1.68.21,2.51.37A17.57,17.57,0,0,1,412.47,296.49Z" style="fill:#263238"></path><path d="M247.34,184.64c0,14.21-25.67,69-38.76,80-4.48,3.77-28.67,20.88-46.79,25.84-8.18,2.23-28.16-34.27-21.11-36.88,9.88-3.65,43.78-18.83,44.87-19.89,7.76-7.53,23.66-31,43.93-53.06C241.12,168,247.35,173.68,247.34,184.64Z" style="fill: rgb(247, 169, 160);"></path><path d="M164.15,288.93c-10.11,11-24.88,20.07-31,21.24s-28.59-3.73-33.45-5.88S88,282.31,86.6,277.77c-1.11-3.63.93-7.79,7.38-3.34,8.27,5.69,10.77,15.57,13.52,16.54s12.74-2.17,14.09-6.26c.8-2.4-1.38-7.77-5.72-9.23s-8.84,1.11-15,.72-12-6.47-10.78-8.47,3.94-.87,12.35-3.59c5.4-1.74,11.78-7.57,22.18-9.54,5.23-1,16-1,16-1Z" style="fill: rgb(247, 169, 160);"></path><path d="M136.12,297.83c-5.69,4.58-18.77,11.88-29.42,12.31-7.2.28-26.64-2.72-26.38-8.17.36-7.79,25.43-6.46,28.4-7.18,9.1-2.22,17.55-11.15,17.55-11.15Z" style="fill: rgb(247, 169, 160);"></path><path d="M118,290.46c-.84.66-1.72,1.26-2.61,1.85s-1.84,1.09-2.81,1.57a18.41,18.41,0,0,1-3,1.16,16.46,16.46,0,0,1-3.22.51q-3.19.24-6.38.22l-6.37,0a61.75,61.75,0,0,1,6.34-.7l6.33-.46a17.91,17.91,0,0,0,3.06-.44,22.61,22.61,0,0,0,3-1c1-.38,1.94-.81,2.88-1.28S117.06,290.92,118,290.46Z" style="fill:#263238"></path><path d="M138.15,298.25c-4.76,5.36-16.22,14.56-26.45,16.71-6.92,1.45-26.2,1.72-26.84-3.59-.92-7.6,23.54-10.4,26.29-11.58,8.44-3.64,15.16-13.65,15.16-13.65Z" style="fill: rgb(247, 169, 160);"></path><path d="M119.74,293.56a24.15,24.15,0,0,1-7,6.1,10.45,10.45,0,0,1-2.26.78l-2.23.55-4.47,1.09-9,2.1a35.61,35.61,0,0,0-4.39,1.24,10.43,10.43,0,0,0-3.84,2.4,9.86,9.86,0,0,1,3.67-2.8,29.12,29.12,0,0,1,4.38-1.52c2.95-.87,5.92-1.63,8.9-2.37,1.49-.38,3-.74,4.48-1.09l2.24-.53a10.79,10.79,0,0,0,2.11-.64,20.94,20.94,0,0,0,3.82-2.38Q118,295.11,119.74,293.56Z" style="fill:#263238"></path><path d="M146.74,303.5c-8.35,5.46-21.85,12.23-26.22,13.39s-21.45,3.37-24.82-.55c-4.24-4.93,8.92-8.47,14.36-10.08,5.62-1.66,10.86-7.56,10.86-7.56Z" style="fill: rgb(247, 169, 160);"></path><path d="M95.21,315.64a3.92,3.92,0,0,1-.45-1.85,3.08,3.08,0,0,1,.72-1.78,9.28,9.28,0,0,1,3.13-2.22,41.14,41.14,0,0,1,7.19-2.59,31.56,31.56,0,0,0,7-2.43,23.92,23.92,0,0,0,5.72-4.73c1.72-1.81,3.29-3.79,4.88-5.76a48.91,48.91,0,0,1,5.12-5.66,23.69,23.69,0,0,1,3-2.36,33.06,33.06,0,0,1,3.27-2,31.59,31.59,0,0,1,7-2.85,35,35,0,0,0-6.84,3.2,32.09,32.09,0,0,0-6,4.49c-3.52,3.56-6.28,7.84-9.76,11.61a24.89,24.89,0,0,1-6,4.82,28.3,28.3,0,0,1-7.3,2.36,40.75,40.75,0,0,0-7.17,2.3,8.87,8.87,0,0,0-3.14,2,2.87,2.87,0,0,0-.76,1.64A3.77,3.77,0,0,0,95.21,315.64Z" style="fill:#263238"></path><path d="M247.33,184.64c0,14.21-25.66,69-38.74,80A177.53,177.53,0,0,1,190.49,277l53.27-102.67C246.13,176,247.33,179.79,247.33,184.64Z" style="fill:#263238"></path><path d="M190.49,277a142.71,142.71,0,0,1-13.27,7.47c-2.27,1.14-4.58,2.2-6.91,3.2s-4.71,1.93-7.1,2.8l.16-.1a96.7,96.7,0,0,1-14.73,12.39A117.83,117.83,0,0,1,132,312.4c-2.87,1.35-5.59,3.07-8.68,4.18a42.76,42.76,0,0,1-9.5,1.83,57.45,57.45,0,0,1-9.64.29,28.9,28.9,0,0,1-4.8-.68A9.09,9.09,0,0,1,95,315.83l.21.09a25.81,25.81,0,0,1-4.3-.45,13.33,13.33,0,0,1-4.1-1.38,4.72,4.72,0,0,1-1.63-1.48,3.23,3.23,0,0,1-.42-2.14,5.43,5.43,0,0,1,2.53-3.4v.08l-1.19-.31-.59-.19a1.2,1.2,0,0,1-.54-.27,1.32,1.32,0,0,0,.55.25l.59.16,1.2.27.11,0-.09.07A5.36,5.36,0,0,0,85,310.5a2.89,2.89,0,0,0,.44,1.95A4.43,4.43,0,0,0,87,313.78,13,13,0,0,0,91,315a28.49,28.49,0,0,0,4.22.35h.11l.09.09a8.53,8.53,0,0,0,4.13,1.95,28.23,28.23,0,0,0,4.69.58,63,63,0,0,0,9.51-.42,42.28,42.28,0,0,0,9.28-1.84c2.94-1.07,5.66-2.8,8.57-4.19A129.14,129.14,0,0,0,148.12,302a104.44,104.44,0,0,0,14.7-12.14l.07-.07.08,0c2.39-.83,4.77-1.69,7.1-2.66s4.66-2,7-3.06Q183.91,280.83,190.49,277Z" style="fill:#263238"></path><path d="M102.15,283.4c.75,1.2,1.48,2.41,2.27,3.58a20,20,0,0,0,2.52,3.31,2.93,2.93,0,0,0,1.81.46,13,13,0,0,0,2.06-.14,17.24,17.24,0,0,0,4-1.06,11.2,11.2,0,0,0,1.84-.9l1.81-1.1a6.46,6.46,0,0,0,2.82-2.77,6.09,6.09,0,0,0-.39-4,9.23,9.23,0,0,0-2.14-3.58,8.72,8.72,0,0,1,2.48,3.44,9.15,9.15,0,0,1,.65,2.06,4.44,4.44,0,0,1,0,2.23,4.14,4.14,0,0,1-1.27,1.85,13.25,13.25,0,0,1-1.73,1.3l-1.8,1.14a11.81,11.81,0,0,1-1.94,1,18.49,18.49,0,0,1-4.19,1,14.28,14.28,0,0,1-2.17.11,7,7,0,0,1-1.11-.14,2.17,2.17,0,0,1-1.06-.55,10.17,10.17,0,0,1-1.33-1.72c-.4-.6-.77-1.2-1.12-1.82C103.42,285.93,102.75,284.68,102.15,283.4Z" style="fill:#263238"></path><path d="M88.59,296.49a17.93,17.93,0,0,1,2.47-.64c.83-.16,1.67-.28,2.52-.37l-.2.35c-.3-.64-.58-1.28-.84-1.94a16.84,16.84,0,0,1-.69-2c.7,1.23,1.36,2.47,2,3.73l.15.3-.34.05c-.83.11-1.67.2-2.51.29Z" style="fill:#263238"></path><path d="M200.53,282.33s23.92,14.33,52,14.33c24.35,0,47-15.22,47-15.22s-17.85-81.77-33.68-102.7c-10.2-13.47-24.38-10.66-31.54-.78C221.56,195.46,200.53,282.33,200.53,282.33Z" style="fill:#5E5AE2"></path><g style="opacity:0.1"><path d="M246.85,237.46l-.41-.32-.2-.15-.06-.05c-.87-.68-1.73-1.39-2.54-2.15-.52-.47-1-1-1.5-1.47s-1-1-1.42-1.57a28.81,28.81,0,0,1-2.51-3.46,24.94,24.94,0,0,1-2-3.86c-.17-.42-.33-.84-.48-1.27l-.15-.42c-.72-2.15-1.21-4.32-1.76-6.39-.34-1.31-.69-2.6-1.11-3.87a38.74,38.74,0,0,0-1.39-3.72c-.46-1.09-1-2.16-1.51-3.19a.31.31,0,0,0-.05-.1,33.54,33.54,0,0,0-2.22-3.63,36.53,36.53,0,0,0-2.44-3.13c-.11-.12-.21-.24-.33-.36.36-1,.73-2,1.09-2.93a34.33,34.33,0,0,1,4.21,4.56l.65.87.61.9c.2.3.39.61.58.92s.39.61.56.93l.52,1c.17.32.32.64.48,1s.31.65.46,1,.3.65.44,1a42.45,42.45,0,0,1,1.47,4c.4,1.38.75,2.76,1,4.13l.2,1,.06.28.13.61v.06l.43,2.11c.27,1.32.57,2.61,1,3.88a29.86,29.86,0,0,0,3.32,7.23,71.68,71.68,0,0,0,4.69,6.51Z"></path><path d="M258.07,221.05s1-5.27-8.68-5.42c-8.13-.11-12.13,1.91-12.13,1.91s7,3.3,10.62,4.65C252.57,224,257.48,224,258.07,221.05Z"></path><path d="M246.28,192.13s-.63-5.33-9.9-2.61c-7.8,2.28-11,5.4-11,5.4s7.7,1.07,11.52,1.3C241.88,196.53,246.57,195.08,246.28,192.13Z"></path><path d="M250.35,206.08s-2.71-3.42-8,2.42C237.94,213.42,237,217,237,217s5.8-2.55,8.55-4C249.18,211,251.81,208,250.35,206.08Z"></path><path d="M229.19,240s-4.46-1.62-.24-9c3.55-6.25,6.88-8.39,6.88-8.39s-.64,6.84-1.21,10.17C233.87,237.14,231.66,240.88,229.19,240Z"></path><path d="M223.23,226.15s-5.29-1.6-.85-10.52c3.74-7.5,7.49-10.21,7.49-10.21s-.32,8-.77,11.93C228.5,222.49,226.17,227,223.23,226.15Z"></path><path d="M258.18,251.06s-3.5,3-7.84-4.09c-3.66-6-3.9-9.87-3.9-9.87s5.54,3.8,8.12,5.88C257.94,245.69,260.08,249.35,258.18,251.06Z"></path><path d="M242.19,254.67s-4.53-1-1.46-8.73c2.57-6.53,5.51-9.06,5.51-9.06s.32,6.71.22,10C246.33,251.23,244.71,255.15,242.19,254.67Z"></path><path d="M296.88,283c-.69.41-1.52.89-2.46,1.41a33.63,33.63,0,0,1-3.92-3.25q-.75-.7-1.44-1.47l-.45-.5c-.24-.27-.48-.54-.71-.82l-.67-.85c-.23-.28-.44-.58-.65-.87s-.43-.58-.62-.89l-.59-.91c-.19-.31-.37-.62-.55-.93s-.36-.62-.53-.93-.35-.63-.51-.95a41.47,41.47,0,0,1-1.75-3.92c-.51-1.34-.95-2.7-1.34-4l-1.11-4-.3-1c0-.11-.07-.23-.1-.34-.26-.82-.54-1.64-.84-2.43a29.75,29.75,0,0,0-3.83-7,63.79,63.79,0,0,0-4.76-5.74.1.1,0,0,1,0-.05h0l0,0s0,0,0,0l-.44-.48.36.24.16.11a.24.24,0,0,1,.09.06l.08,0c.92.62,1.83,1.27,2.7,2,.56.43,1.08.9,1.61,1.36s1,1,1.53,1.46a28.83,28.83,0,0,1,2.75,3.27,24.61,24.61,0,0,1,2.21,3.7h0a1.42,1.42,0,0,1,.08.18c.11.2.2.4.29.61a.36.36,0,0,1,0,.09h0c1,2.32,1.77,4.73,2.54,7,.43,1.28.87,2.55,1.38,3.77s1.05,2.44,1.66,3.62a37.87,37.87,0,0,0,3.26,5.32c.16.23.33.45.51.68l.5.63a36.81,36.81,0,0,0,2.65,2.94c.94.93,1.93,1.83,3,2.69Z"></path><path d="M271.14,273.93s-1.89,5,7.59,6.88c8,1.56,12.27.28,12.27.28s-6.34-4.5-9.63-6.47C277.07,272.05,272.24,271.18,271.14,273.93Z"></path><path d="M268.54,255.07s-1.05,2.79,4.21,3.82c4.43.87,6.82.15,6.82.15s-3.52-2.49-5.35-3.59C271.84,254,269.15,253.54,268.54,255.07Z"></path><path d="M284.05,240.5s3.84.78,1.29,7.36c-2.13,5.53-4.6,7.68-4.6,7.68s-.31-5.66-.24-8.46C280.58,243.43,281.92,240.11,284.05,240.5Z"></path><path d="M291.26,248.58s2,2.57-3.19,5.3c-4.34,2.3-7.05,2.3-7.05,2.3s2.88-3.7,4.44-5.42C287.5,248.52,290.14,247.18,291.26,248.58Z"></path><path d="M281.2,229.44s3.64,2.87-2.56,8.47c-5.22,4.71-9,5.67-9,5.67s2.7-6.15,4.26-9.08C276,230.68,279.16,227.89,281.2,229.44Z"></path><path d="M296.27,267.68s0,0,0,0c-.08.2-.17.41-.27.62a27.31,27.31,0,0,1-5.5,8.26c-.34.32-.53.47-.53.47s0-.44,0-1.15c0-2.06.12-6.4.34-8.86.33-3.86,1.83-7.32,3.92-7.57C295,262.42,295.68,265.18,296.27,267.68Z"></path><path d="M268.49,225.47s4.61-.39,3.91,7.93c-.6,7-2.68,10.27-2.68,10.27s-2.23-6.34-3.09-9.54C265.51,230,265.94,225.73,268.49,225.47Z"></path></g><path d="M256.65,187.13c-5.36,0-12.25-5.28-16.42-11.36-.29-.42-.08-5.14-.11-10.88,0-3.49-.14-7.38-.5-10.91-.08-.73,22.72,3.13,22.72,3.13a56.92,56.92,0,0,0-.76,13.79,7.8,7.8,0,0,0,.3,1.44c0,.07,0,.14.06.24C262.67,175.29,263.34,187.13,256.65,187.13Z" style="fill: rgb(247, 169, 160);"></path><path d="M241,153.93c1.64,5.88,6.83,19.94,18.69,19a13.28,13.28,0,0,0,2.25-.35.78.78,0,0,0-.05-.24,8.81,8.81,0,0,1-.3-1.43,56.52,56.52,0,0,1,.76-13.81S245.89,154.32,241,153.93Z" style="fill:#263238"></path><path d="M237.1,125.57c-2.7,7.81.65,30.78,6.08,36.07,7.88,7.67,21.18,8.86,27.81-.7,6.41-9.27,1.53-39.13-4.58-44C257.41,109.82,241.08,114,237.1,125.57Z" style="fill: rgb(247, 169, 160);"></path><path d="M251.17,135.53a17.41,17.41,0,0,0,2-.55,3.34,3.34,0,0,0,1.93-.95,1.07,1.07,0,0,0-.08-1.3,2.66,2.66,0,0,0-2.64-.46,3.87,3.87,0,0,0-2.35,1.52A1.14,1.14,0,0,0,251.17,135.53Z" style="fill:#263238"></path><path d="M267.37,133.83a20.35,20.35,0,0,1-2.07-.09,3.34,3.34,0,0,1-2.1-.49A1.06,1.06,0,0,1,263,132a2.6,2.6,0,0,1,2.47-1,3.83,3.83,0,0,1,2.63.95A1.14,1.14,0,0,1,267.37,133.83Z" style="fill:#263238"></path><path d="M255.94,154.3c.41.33.83.79,1.4.78a4.11,4.11,0,0,0,1.63-.56s.11,0,.08.07a2.11,2.11,0,0,1-1.89,1,1.65,1.65,0,0,1-1.36-1.25A.09.09,0,0,1,255.94,154.3Z" style="fill:#263238"></path><path d="M257.11,149.48a5.32,5.32,0,0,0,3.77,2,6.47,6.47,0,0,0,1.91-.11,1.35,1.35,0,0,0,.36-.08l.34-.08a.39.39,0,0,0,.27-.38h0a.41.41,0,0,0,0-.16h0l0-.14c-.08-1.2-.38-3-.38-3,.46.18,2.79.95,2.69.33-.83-5.15-1.76-10.87-3.67-15.82a.14.14,0,0,0-.28.07c.6,5,2.08,9.82,2.76,14.81a9.5,9.5,0,0,0-2.57-.51c-.17.07.64,3.49.64,4a.21.21,0,0,1,0,.06c-2,.46-3.56,0-5.65-1.15C257.11,149.25,257,149.36,257.11,149.48Z" style="fill:#263238"></path><path d="M262,150.93a6.43,6.43,0,0,1-2.42,2.1,2.83,2.83,0,0,1-1.71.2c-1.27-.26-1.36-1.4-1.19-2.39a7,7,0,0,1,.47-1.53A8.22,8.22,0,0,0,262,150.93Z" style="fill:#263238"></path><path d="M259.62,153a2.83,2.83,0,0,1-1.71.2c-1.27-.26-1.36-1.4-1.19-2.39A2.92,2.92,0,0,1,259.62,153Z" style="fill:#ff9bbc"></path><path d="M254.85,139.58c0-.06-.12.09-.11.16.2,1.62.16,3.52-1.27,4.2,0,0,0,.1,0,.09C255.27,143.61,255.31,141.09,254.85,139.58Z" style="fill:#263238"></path><path d="M255.06,141.35a2.49,2.49,0,0,1-.44,1.25,1.84,1.84,0,0,1-1.27.69,1.61,1.61,0,0,1-1.34-.57,2.9,2.9,0,0,1-.58-1.18,4.89,4.89,0,0,1-.11-.78,3.52,3.52,0,0,1,.22-1.61,5.09,5.09,0,0,0,.16,1.18,6.39,6.39,0,0,0,.32,1c.27.68.73,1.23,1.28,1.15s1-.54,1.15-1.26a11,11,0,0,0,.26-2.27A5.14,5.14,0,0,1,255.06,141.35Z" style="fill:#263238"></path><path d="M264.68,138.54c0-.07.13.07.13.14,0,1.64.35,3.51,1.85,4,0,0,0,.1,0,.09C264.83,142.59,264.45,140.1,264.68,138.54Z" style="fill:#263238"></path><path d="M264.72,140.32a2.52,2.52,0,0,0,.62,1.17,1.85,1.85,0,0,0,1.35.51,1.61,1.61,0,0,0,1.25-.76,2.7,2.7,0,0,0,.4-1.24,5.23,5.23,0,0,0,0-.79,3.49,3.49,0,0,0-.45-1.56,5.18,5.18,0,0,1,0,1.18,7.11,7.11,0,0,1-.17,1.06c-.18.71-.55,1.31-1.11,1.31s-1.05-.39-1.32-1.08a12.21,12.21,0,0,1-.58-2.2A5.25,5.25,0,0,0,264.72,140.32Z" style="fill:#263238"></path><path d="M271,125c-7.8,6.61-20.16-.92-20.16-.92a9.17,9.17,0,0,1-8.67,6.72s-.2,14.37-3.95,14.72c-5.71.55-9.44-18.64-8-22.63s6.15-5.45,6.15-5.45,0-3,3.3-6c3.59-3.38,17.45-.74,17.45-.74a12.58,12.58,0,0,1,3-5,3.54,3.54,0,0,1,5.12,0,8.4,8.4,0,0,0-1,3.64c-.25,4.23,3.15,3.88,2.73.11a5.87,5.87,0,0,0-1.72-3.75c1.43-2.63,4.08-3.72,5.88-2.57C274.35,105.1,277.52,119.48,271,125Z" style="fill:#263238"></path><path d="M240.94,126.36a.19.19,0,1,0-.35.12,36.73,36.73,0,0,1,1.72,8.56c.12,2.88-.67,10.24-4.87,9.81a.16.16,0,0,0-.06.32c2.84,1,4.36-2.64,5-5.15C243.55,135.47,242.49,130.65,240.94,126.36Z" style="fill:#263238"></path><path d="M270.85,102.85s-.06,0,0,0c4.91,5.09,6.77,12.84,3.39,19.33-4.25,8.16-14.93,4.27-21.33,1.63-.32-.13-.56.33-.24.47,6.24,2.76,17.05,6.41,21.6-1.07C278.29,116.57,276.32,108,270.85,102.85Z" style="fill:#263238"></path><path d="M237.57,117.27c-5.54,1.17-9.28,4.23-9.23,10.22a21.84,21.84,0,0,0,7.54,15.84c.22.19.49-.13.3-.33a24.66,24.66,0,0,1-6.78-11.73c-.75-3.4-.73-7.28,1.41-10.21,1.54-2.1,4.47-2.87,6.83-3.58A.11.11,0,0,0,237.57,117.27Z" style="fill:#263238"></path><path d="M258.92,111.66c-7.43-3.57-21.69-6.22-22.5,5.66,0,.1.16.11.17,0,1.48-12,14.69-8,22.21-5.36C259,112,259.08,111.74,258.92,111.66Z" style="fill:#263238"></path><path d="M241.3,144.34s-5-7.46-8.42-5.68.33,12.55,4.24,14.08a4,4,0,0,0,5.39-2.06Z" style="fill: rgb(247, 169, 160);"></path><path d="M234,141.72a.06.06,0,0,0,0,.11c2.74,1.16,4.15,3.74,5.12,6.41a2.2,2.2,0,0,0-3.29-.66c-.08,0,0,.16.07.15a2.46,2.46,0,0,1,2.69.9,11.79,11.79,0,0,1,1.26,2.21c.13.25.58.13.49-.16l0-.06C240.44,147.1,237.79,142.14,234,141.72Z" style="fill:#263238"></path></g></svg>